<svg width="64" height="64" viewBox="0 0 64 64" fill="none" xmlns="http://www.w3.org/2000/svg">
<g clip-path="url(#clip0_15_256)">
<path d="M52 58C53.872 49.172 55.94 41.8 58.416 34.616C60.06 41.8 62.128 49.168 63.764 56.7C64 61.312 61.316 64 58 64C54.684 64 52 61.312 52 58ZM32 4.00001L26.24 9.76002L18.24 1.76001C17.0957 0.671925 15.577 0.065155 13.998 0.065155C12.419 0.065155 10.9003 0.671925 9.756 1.76001C9.19859 2.31619 8.75644 2.9769 8.45487 3.70429C8.15331 4.43167 7.99827 5.21143 7.99864 5.99885C7.99901 6.78626 8.15479 7.56587 8.45704 8.29297C8.75929 9.02007 9.20207 9.68037 9.76 10.236L17.76 18.236L0 35.996L28 63.996L60 31.996L32 4.00001ZM32 9.64002L54.36 32H9.64L20.64 21C21.0146 21.2184 21.4511 21.3064 21.8811 21.2503C22.3111 21.1941 22.7103 20.9969 23.0162 20.6896C23.3222 20.3823 23.5176 19.9822 23.5718 19.552C23.6261 19.1217 23.5361 18.6857 23.316 18.312L26.2 15.44L32.36 21.56C32.7366 21.9366 33.2474 22.1482 33.78 22.1482C34.3126 22.1482 34.8234 21.9366 35.2 21.56C35.5766 21.1834 35.7882 20.6726 35.7882 20.14C35.7882 19.6074 35.5766 19.0966 35.2 18.72L29.08 12.6L32 9.64002ZM12.6 7.40001C12.3193 7.12006 12.1282 6.763 12.0508 6.37419C11.9735 5.98539 12.0134 5.58236 12.1656 5.21631C12.3178 4.85025 12.5753 4.53767 12.9055 4.31826C13.2356 4.09885 13.6236 3.98251 14.02 3.98401C14.572 3.98401 15.072 4.20401 15.44 4.56001L23.44 12.56L20.6 15.4L12.6 7.40001Z" fill="#D4E8EC"/>
</g>
<defs>
<clipPath id="clip0_15_256">
<rect width="64" height="64" fill="white"/>
</clipPath>
</defs>
</svg>
