<svg width="64" height="64" viewBox="0 0 64 64" fill="none" xmlns="http://www.w3.org/2000/svg">
<path d="M32.119 34.179C36.844 34.179 39.035 37.766 39.497 42.858C39.606 44.077 39.492 45.853 39.336 47.911C38.805 54.747 38.194 63.147 42.746 63.147C46.595 63.147 48.573 55.761 49.714 47.343C50.816 39.009 49.649 34.862 50.222 31.162C51.316 24.151 57.437 17.865 55.546 8.925C54.499 3.966 51.769 1.633 49.063 0.652997C42.832 -1.615 38.808 2.755 32.117 2.755C25.426 2.755 21.403 -1.615 15.169 0.652997C12.466 1.633 9.73598 3.966 8.68698 8.925C6.79798 17.864 12.916 24.151 14.013 31.162C14.586 34.862 13.42 39.009 14.522 47.343C15.663 55.762 17.641 63.147 21.49 63.147C26.039 63.147 25.432 54.747 24.9 47.911C24.744 45.854 24.629 44.077 24.738 42.858C25.198 37.766 27.42 34.179 32.117 34.179H32.119Z" fill="#FAFAFA"/>
</svg>
