<svg width="14" height="14" viewBox="0 0 14 14" fill="none" xmlns="http://www.w3.org/2000/svg">
<g clip-path="url(#clip0_9_74)">
<path d="M10.333 3.64401C10.2667 3.64401 10.2031 3.61767 10.1562 3.57079C10.1093 3.52391 10.083 3.46032 10.083 3.39401C10.083 3.32771 10.1093 3.26412 10.1562 3.21724C10.2031 3.17035 10.2667 3.14401 10.333 3.14401M10.333 3.64401C10.3993 3.64401 10.4629 3.61767 10.5098 3.57079C10.5567 3.52391 10.583 3.46032 10.583 3.39401C10.583 3.32771 10.5567 3.26412 10.5098 3.21724C10.4629 3.17035 10.3993 3.14401 10.333 3.14401" stroke="#F9F0F0" stroke-linecap="round" stroke-linejoin="round"/>
<path d="M0.858056 3.431C0.858056 2.7486 1.12914 2.09415 1.61167 1.61162C2.0942 1.12908 2.74865 0.858002 3.43106 0.858002H10.2931C10.6309 0.858002 10.9655 0.924554 11.2777 1.05386C11.5899 1.18316 11.8735 1.37269 12.1124 1.61162C12.3514 1.85054 12.5409 2.13419 12.6702 2.44636C12.7995 2.75853 12.8661 3.09311 12.8661 3.431V10.293C12.8661 10.9754 12.595 11.6299 12.1124 12.1124C11.6299 12.5949 10.9755 12.866 10.2931 12.866H3.43006C2.74765 12.866 2.0932 12.5949 1.61067 12.1124C1.12814 11.6299 0.857056 10.9754 0.857056 10.293V3.43L0.858056 3.431Z" stroke="#F9F0F0" stroke-linecap="round" stroke-linejoin="round"/>
<path d="M4.31201 6.86201C4.31201 7.19688 4.37797 7.52847 4.50612 7.83785C4.63427 8.14724 4.8221 8.42834 5.05889 8.66513C5.29568 8.90192 5.57679 9.08976 5.88617 9.2179C6.19555 9.34605 6.52714 9.41201 6.86201 9.41201C7.19688 9.41201 7.52847 9.34605 7.83785 9.2179C8.14724 9.08976 8.42834 8.90192 8.66513 8.66513C8.90192 8.42834 9.08976 8.14724 9.2179 7.83785C9.34605 7.52847 9.41201 7.19688 9.41201 6.86201C9.41201 6.18571 9.14335 5.53711 8.66513 5.05889C8.18692 4.58067 7.53831 4.31201 6.86201 4.31201C6.18571 4.31201 5.53711 4.58067 5.05889 5.05889C4.58067 5.53711 4.31201 6.18571 4.31201 6.86201Z" stroke="#F9F0F0" stroke-linecap="round" stroke-linejoin="round"/>
</g>
<defs>
<clipPath id="clip0_9_74">
<rect width="14" height="14" fill="white"/>
</clipPath>
</defs>
</svg>
