<svg width="65" height="65" viewBox="0 0 65 65" fill="none" xmlns="http://www.w3.org/2000/svg">
<g clip-path="url(#clip0_12_244)">
<path fill-rule="evenodd" clip-rule="evenodd" d="M54.8832 0.45501C56.2286 -0.0352295 57.6859 -0.131244 59.084 0.17825C60.482 0.487744 61.7627 1.18989 62.7755 2.20215C63.7882 3.21442 64.491 4.49475 64.8011 5.89266C65.1113 7.29057 65.016 8.74797 64.5264 10.0936L47.9328 59.8279C47.5291 61.05 46.8185 62.1481 45.8691 63.0171C44.9196 63.8861 43.763 64.4969 42.51 64.7911C41.2599 65.0955 39.9522 65.0699 38.715 64.7166C37.4778 64.3634 36.3537 63.6947 35.4528 62.7761L26.5478 53.9129L17.1971 58.7507C16.8387 58.9366 16.438 59.0258 16.0345 59.0094C15.6311 58.9931 15.2389 58.8718 14.8967 58.6576C14.5544 58.4433 14.274 58.1435 14.083 57.7877C13.8921 57.432 13.7972 57.0326 13.8078 56.6289L14.1932 41.8461L46.9021 18.0886C47.2106 17.8645 47.472 17.5819 47.6713 17.2568C47.8706 16.9317 48.0038 16.5706 48.0636 16.194C48.1233 15.8174 48.1082 15.4327 48.0193 15.062C47.9303 14.6912 47.7692 14.3416 47.5452 14.033C47.3211 13.7245 47.0384 13.4632 46.7134 13.2639C46.3883 13.0646 46.0272 12.9313 45.6506 12.8716C45.274 12.8119 44.8893 12.8269 44.5185 12.9159C44.1478 13.0048 43.7981 13.1659 43.4896 13.39L10.2282 37.5514L2.19605 29.5193C1.3304 28.6534 0.692199 27.587 0.338222 26.4149C-0.0157556 25.2428 -0.0745333 24.0014 0.167118 22.8011C0.410088 21.4888 0.997833 20.2649 1.87004 19.2548C2.74224 18.2447 3.8675 17.4848 5.13033 17.0532H5.14426L54.8785 0.450367L54.8832 0.45501Z" fill="#FAFAFA"/>
</g>
<defs>
<clipPath id="clip0_12_244">
<rect width="65" height="65" fill="white"/>
</clipPath>
</defs>
</svg>
