<svg width="64" height="64" viewBox="0 0 64 64" fill="none" xmlns="http://www.w3.org/2000/svg">
<path d="M45.3333 16C48.2789 16 50.6667 13.6122 50.6667 10.6667C50.6667 7.72116 48.2789 5.33334 45.3333 5.33334C42.3878 5.33334 40 7.72116 40 10.6667C40 13.6122 42.3878 16 45.3333 16Z" stroke="#D4E8EC" stroke-width="2" stroke-linecap="round" stroke-linejoin="round"/>
<path d="M41.5734 14.4267L14.4268 41.5733" stroke="#D4E8EC" stroke-width="2" stroke-linecap="round" stroke-linejoin="round"/>
<path d="M10.6667 50.6667C13.6122 50.6667 16 48.2789 16 45.3333C16 42.3878 13.6122 40 10.6667 40C7.72119 40 5.33337 42.3878 5.33337 45.3333C5.33337 48.2789 7.72119 50.6667 10.6667 50.6667Z" stroke="#D4E8EC" stroke-width="2" stroke-linecap="round" stroke-linejoin="round"/>
<path d="M32.0001 58.6667C32.0001 58.6667 21.3334 34.6667 28.0001 28C34.6668 21.3333 58.6668 32 58.6668 32" stroke="#D4E8EC" stroke-width="2" stroke-linecap="round" stroke-linejoin="round"/>
</svg>
