<svg width="14" height="14" viewBox="0 0 14 14" fill="none" xmlns="http://www.w3.org/2000/svg">
<path d="M8.42199 9.71701V1.14101M8.42199 9.72101C8.42199 10.2932 8.25232 10.8525 7.93443 11.3283C7.61654 11.804 7.16472 12.1748 6.63609 12.3938C6.10746 12.6128 5.52578 12.6701 4.96459 12.5584C4.4034 12.4468 3.88792 12.1713 3.48333 11.7667C3.07873 11.3621 2.8032 10.8466 2.69158 10.2854C2.57995 9.72422 2.63724 9.14254 2.8562 8.61391C3.07517 8.08528 3.44597 7.63346 3.92172 7.31557C4.39747 6.99769 4.95681 6.82801 5.52899 6.82801M8.42199 1.14001C8.42172 1.70329 8.53244 2.2611 8.74782 2.78158C8.96319 3.30205 9.279 3.77499 9.67721 4.17338C10.0754 4.57177 10.5482 4.8878 11.0686 5.10342C11.589 5.31904 12.1467 5.43001 12.71 5.43001" stroke="#d4e8ec" stroke-linecap="round" stroke-linejoin="round"/>
</svg>
