<svg width="64" height="64" viewBox="0 0 64 64" fill="none" xmlns="http://www.w3.org/2000/svg">
<path d="M18.6667 61.3333C17.7778 59.5555 17.1111 57.3778 16.6667 54.8C16.2222 52.2222 16 49.6 16 46.9333C16 42.5333 16.4889 38.8995 17.4667 36.032C18.4444 33.1644 19.7333 30.9315 21.3333 29.3333V16L29.3333 2.66666H30.6667V16.4C30.2222 16.6222 29.8889 16.9333 29.6667 17.3333C29.4444 17.7333 29.3333 18.1778 29.3333 18.6667C29.3333 19.4222 29.5893 20.056 30.1013 20.568C30.6133 21.08 31.2462 21.3351 32 21.3333C32.7556 21.3333 33.3893 21.0773 33.9013 20.5653C34.4133 20.0533 34.6684 19.4204 34.6667 18.6667C34.6667 18.1778 34.5556 17.7333 34.3333 17.3333C34.1111 16.9333 33.7778 16.6222 33.3333 16.4V2.66666H34.6667L42.6667 16V29.3333C44.3111 30.9333 45.6116 33.1671 46.568 36.0347C47.5244 38.9022 48.0018 42.5351 48 46.9333C48 49.6 47.7778 52.2222 47.3333 54.8C46.8889 57.3778 46.2222 59.5555 45.3333 61.3333C43.4667 60.7555 41.9778 59.6995 40.8667 58.1653C39.7556 56.6311 39.2222 54.8871 39.2667 52.9333C39.2667 51.8222 39.3893 50.6222 39.6347 49.3333C39.88 48.0444 40.0018 46.7555 40 45.4667C40 42.8889 39.2996 40.1778 37.8987 37.3333C36.4978 34.4889 34.5316 31.8222 32 29.3333C29.5111 31.8222 27.5556 34.4889 26.1333 37.3333C24.7111 40.1778 24 42.8889 24 45.4667C24 46.7555 24.1333 48.0444 24.4 49.3333C24.6667 50.6222 24.8222 51.8222 24.8667 52.9333C24.8667 54.8889 24.3004 56.6444 23.168 58.2C22.0356 59.7556 20.5351 60.8 18.6667 61.3333Z" fill="#D4E8EC"/>
</svg>
